<svg width="106" height="101" viewBox="0 0 106 101" fill="none" xmlns="http://www.w3.org/2000/svg">
<path d="M85.7721 44.3146L90.4259 40.6815C79.6513 74.4614 65.0616 86.7599 54.5903 91.0997C44.0584 95.4645 35.3181 92.9877 32.8413 91.6636C29.6756 89.9719 26.56 87.1882 26.742 84.772C26.8455 83.4194 28.4622 78.5621 44.9649 72.734C62.4491 66.5598 71.6784 55.8209 76.3358 47.8978C77.7634 45.4745 78.8626 43.1619 79.7049 41.0776L80.2331 42.6515C80.6007 43.7436 81.4715 44.5859 82.5743 44.9178C82.9062 45.0177 83.2524 45.0677 83.5914 45.0677C84.373 45.0677 85.1439 44.8071 85.7721 44.3146Z" fill="white" fill-opacity="0.8"/>
<path d="M60.5112 51.0135C60.5112 52.9122 60.1472 54.8644 59.4726 56.7916C54.7224 60.6568 49.0942 63.7617 42.6059 66.053C35.9819 68.3906 30.8213 70.8675 27.0846 73.5085C15.4249 70.5106 7.08789 60.1357 7.08789 51.0135C7.08789 45.6958 9.96445 41.7379 14.3721 39.0219L17.4556 40.5637V51.1741C17.4556 52.4018 18.0909 53.5439 19.1366 54.1899C20.1823 54.8358 21.4849 54.8929 22.5842 54.3433L33.8013 48.7365L45.0149 54.3433C45.5145 54.5931 46.057 54.7181 46.5995 54.7181C47.249 54.7181 47.895 54.5396 48.4625 54.1899C49.5082 53.5439 50.1434 52.4018 50.1434 51.1741V40.5637L53.227 39.0219C57.6346 41.7379 60.5112 45.6958 60.5112 51.0135Z" fill="white" fill-opacity="0.8"/>
<path d="M49.2441 33.0903L45.0149 35.2032C43.8157 35.8027 43.0555 37.0304 43.0555 38.3724V45.4388L35.3859 41.6058C34.8863 41.356 34.3438 41.2311 33.8013 41.2311C33.2553 41.2311 32.7128 41.356 32.2131 41.6058L24.5435 45.4388V38.3724C24.5435 37.0304 23.7869 35.8027 22.5842 35.2032L18.355 33.0903L30.2574 30.1139V31.9733C30.2574 33.9326 31.842 35.5172 33.8013 35.5172C35.7571 35.5172 37.3453 33.9326 37.3453 31.9733V30.1139L49.2441 33.0903Z" fill="white" fill-opacity="0.8"/>
<path d="M97.7672 20.856C98.3204 21.1308 98.6345 21.7269 98.5488 22.3371L96.9356 33.8469L95.1369 32.0089C93.8771 30.717 91.8464 30.5814 90.4224 31.6913L85.3545 35.6493L83.7556 30.8919C83.4558 29.9996 82.8134 29.2644 81.9711 28.8469L80.0261 27.8797L89.8406 18.0116C90.276 17.5762 90.9399 17.4656 91.4895 17.7404L97.7672 20.856Z" fill="white" fill-opacity="0.8"/>
<path d="M104.031 0.370415C105.783 1.24123 106.5 3.36832 105.63 5.12066L100.954 14.5284C104.22 16.1701 106.076 19.6962 105.569 23.3222L102.953 41.9734C102.767 43.3118 101.836 44.4253 100.551 44.8464C99.2662 45.2711 97.8565 44.9249 96.9107 43.9577L96.8393 43.8864C91.9856 58.8081 85.9612 70.9995 78.9054 80.1645C72.5064 88.4766 65.24 94.3582 57.3063 97.6487C51.9779 99.8579 46.9171 100.639 42.5416 100.639C36.5672 100.639 31.8705 99.1834 29.5043 97.9164C27.0525 96.6102 19.108 91.7564 19.6755 84.2367C19.8111 82.4665 20.3964 80.7605 21.435 79.1153C17.27 77.5021 13.3835 75.0859 9.993 71.9239C3.64388 66.0137 0 58.3905 0 51.0135C0 44.7964 2.61246 39.4752 7.24493 35.4601L6.61679 35.1425C5.28915 34.4822 4.51469 33.0618 4.67887 31.5878C4.83947 30.1139 5.90301 28.8969 7.34129 28.5364L30.2574 22.8083V12.7724C30.2574 10.8167 31.842 9.2285 33.8013 9.2285C35.7571 9.2285 37.3453 10.8167 37.3453 12.7724V22.8083L60.2578 28.5364C61.6996 28.8969 62.7596 30.1139 62.9238 31.5878C63.0844 33.0618 62.3099 34.4822 60.9859 35.1425L60.3542 35.4601C64.3442 38.9184 66.8353 43.3475 67.4456 48.4831C68.3771 47.234 69.2515 45.9385 70.0581 44.5894C72.849 39.9249 74.2123 35.7207 74.844 33.2188L72.4707 32.0411C71.45 31.5343 70.7362 30.5671 70.5506 29.4429C70.365 28.3187 70.7326 27.1766 71.5356 26.3665L84.8156 13.0151C87.3959 10.4205 91.3253 9.76384 94.6087 11.377L99.2805 1.9693C100.151 0.216951 102.278 -0.500403 104.031 0.370415ZM98.5488 22.3372C98.6345 21.7269 98.3204 21.1309 97.7672 20.8561L91.4895 17.7404C90.9399 17.4656 90.2761 17.5762 89.8406 18.0116L80.0261 27.8797L81.9712 28.8469C82.8134 29.2645 83.4558 29.9997 83.7556 30.8919L85.3545 35.6493L90.4224 31.6913C91.8464 30.5814 93.8771 30.717 95.1369 32.009L96.9357 33.847L98.5488 22.3372ZM90.4259 40.6815L85.7721 44.3146C85.1439 44.8071 84.373 45.0677 83.5915 45.0677C83.2524 45.0677 82.9062 45.0177 82.5743 44.9178C81.4715 44.5859 80.6007 43.7436 80.2331 42.6515L79.7049 41.0776C78.8626 43.1619 77.7634 45.4745 76.3358 47.8978C71.6784 55.8209 62.4491 66.5598 44.9649 72.734C28.4622 78.5621 26.8455 83.4194 26.742 84.772C26.56 87.1882 29.6756 89.9719 32.8413 91.6636C35.3181 92.9877 44.0584 95.4645 54.5903 91.0997C65.0616 86.7599 79.6514 74.4614 90.4259 40.6815ZM59.4726 56.7916C60.1472 54.8644 60.5112 52.9122 60.5112 51.0135C60.5112 45.6958 57.6346 41.7379 53.227 39.0219L50.1435 40.5637V51.1741C50.1435 52.4018 49.5082 53.5439 48.4625 54.1899C47.895 54.5396 47.2491 54.7181 46.5995 54.7181C46.057 54.7181 45.5145 54.5931 45.0149 54.3433L33.8013 48.7365L22.5842 54.3433C21.485 54.8929 20.1823 54.8358 19.1366 54.1899C18.0909 53.5439 17.4556 52.4018 17.4556 51.1741V40.5637L14.3721 39.0219C9.96445 41.7379 7.08789 45.6958 7.08789 51.0135C7.08789 60.1357 15.4249 70.5106 27.0846 73.5085C30.8213 70.8675 35.9819 68.3906 42.6059 66.053C49.0942 63.7617 54.7224 60.6568 59.4726 56.7916ZM45.0149 35.2032L49.2441 33.0904L37.3453 30.1139V31.9733C37.3453 33.9326 35.7571 35.5172 33.8013 35.5172C31.842 35.5172 30.2574 33.9326 30.2574 31.9733V30.1139L18.355 33.0904L22.5842 35.2032C23.7869 35.8027 24.5435 37.0305 24.5435 38.3724V45.4389L32.2132 41.6058C32.7128 41.356 33.2553 41.2311 33.8013 41.2311C34.3438 41.2311 34.8863 41.356 35.3859 41.6058L43.0556 45.4389V38.3724C43.0556 37.0305 43.8157 35.8027 45.0149 35.2032Z" fill="white"/>
</svg>
