<svg width="92" height="92" viewBox="0 0 92 92" fill="none" xmlns="http://www.w3.org/2000/svg">
<path d="M57.3563 26.8902C53.6367 29.9539 55.2539 29.5856 51.157 32.9457C47.0602 36.3059 37.959 44.9848 33.3949 48.8031C28.5523 52.8551 27.2496 59.9707 24.9945 62.9984C22.7395 66.0262 18.4359 69.1438 16.091 70.123C13.7461 71.1023 11.5 70.716 11.3652 72.7555C11.2215 74.7949 14.5367 72.9711 17.0883 72.2344C19.6398 71.4977 26.1625 67.832 28.6691 66.5742C30.0887 65.8645 34.3652 65.6848 41.0137 61.5879C47.6621 57.491 57.518 49.7555 60.2313 46.6379C62.9445 43.5293 69.602 42.6129 69.8535 38.9922C70.1051 35.3715 66.3316 30.5648 63.9688 28.5793C61.5969 26.6117 59.0723 25.4797 57.3563 26.8902Z" fill="#8CC34D"/>
<path d="M58.9105 50.3664L54.9035 56.8711L49.423 62.7379L54.3644 69.0898L58.2367 76.2234L65.6668 73.3305L74.0223 71.5785L73.2406 63.3039L74.3457 55.4066L66.2598 53.6457L58.9105 50.3664Z" fill="#D6DC98"/>
<path d="M61.7945 27.9684C61.3543 28.6691 60.8871 29.352 60.402 30.0258C60.2582 30.2234 60.5817 29.7922 60.5637 29.8102C60.5098 29.8641 60.4649 29.9359 60.4199 29.9898C60.3301 30.1066 60.2313 30.2145 60.1414 30.3312C59.9617 30.5379 59.7731 30.7445 59.5844 30.9422C59.2699 31.2656 58.9285 31.5531 58.5781 31.8406C58.5512 31.8676 58.4973 31.9215 58.4613 31.9305C58.3985 31.9574 58.9375 31.5711 58.7668 31.6969C58.686 31.7598 58.6051 31.8227 58.5242 31.8766C58.3535 32.0113 58.1738 32.1371 58.0031 32.2719C57.2215 32.8648 56.4938 33.5207 55.7301 34.1406C55.4426 34.3742 55.8828 33.9969 55.9817 33.952C55.9277 33.9789 55.8738 34.0328 55.8199 34.0777L55.4696 34.3203C55.2449 34.473 55.0113 34.6258 54.7688 34.7695C53.3223 35.6859 51.9387 36.6832 50.627 37.7973C48.4078 39.7109 46.4492 41.8852 44.3649 43.9336C40.5106 47.698 36.4406 51.2469 32.2809 54.6789C31.7149 55.1461 31.1399 55.6133 30.5649 56.0715C30.475 56.1434 30.3762 56.2152 30.2863 56.2871C29.918 56.5746 30.7895 55.9187 30.502 56.1254C30.4481 56.1613 30.3942 56.2062 30.3403 56.2422C29.5137 56.8531 28.7051 57.482 27.8875 58.102C25.3629 60.0156 22.8473 61.9203 20.3227 63.834C20.2688 63.8789 20.2149 63.9148 20.161 63.9598C19.6758 64.3281 19.2985 64.6875 19.1278 65.2984C18.984 65.8375 19.0469 66.5562 19.3524 67.0324C19.9453 67.9578 21.4278 68.5957 22.425 67.841C24.6711 66.134 26.9262 64.4359 29.1723 62.7289C30.9512 61.3812 32.757 60.0605 34.491 58.65C38.4352 55.4516 42.2805 52.1094 45.9731 48.6234C48.2102 46.5121 50.2766 44.2391 52.5227 42.1457C52.9719 41.7324 53.4301 41.3191 53.8883 40.9238C54.086 40.7531 54.2836 40.5914 54.4903 40.4297C54.5801 40.3578 54.6789 40.2769 54.7688 40.2051C54.8047 40.1781 54.8406 40.1512 54.8676 40.1242C55.1551 39.8906 54.3824 40.4836 54.6789 40.268C55.2629 39.8367 55.8559 39.4144 56.4758 39.0191C57.6797 38.2465 58.7758 37.4199 59.8629 36.4945C60.0336 36.3508 60.2043 36.216 60.375 36.0723C60.7164 35.7937 59.8988 36.4316 60.2403 36.1711C60.3301 36.0992 60.4289 36.0273 60.5188 35.9555C60.977 35.6141 61.4352 35.2727 61.8754 34.9133C62.8278 34.1406 63.5914 33.2062 64.3192 32.2359C64.8043 31.5891 65.2446 30.9152 65.6758 30.2324C66.2957 29.2352 65.9184 27.7168 64.8672 27.1598C63.7621 26.5848 62.4594 26.9082 61.7945 27.9684Z" fill="#ACD578"/>
<path d="M59.1531 57.1855C60.0965 57.1855 60.9949 56.359 60.95 55.3887C60.9051 54.4184 60.1594 53.5918 59.1531 53.5918C58.2097 53.5918 57.3113 54.4184 57.3562 55.3887C57.4012 56.359 58.1469 57.1855 59.1531 57.1855ZM56.0535 60.5188C56.9969 60.5188 57.8953 59.6922 57.8504 58.7219C57.8054 57.7516 57.0597 56.925 56.0535 56.925C55.1101 56.925 54.2117 57.7516 54.2566 58.7219C54.3015 59.7012 55.0472 60.5188 56.0535 60.5188ZM58.3535 63.852C59.2969 63.852 60.1953 63.0254 60.1504 62.0551C60.1054 61.0848 59.3597 60.2582 58.3535 60.2582C57.4101 60.2582 56.5117 61.0848 56.5566 62.0551C56.6015 63.0344 57.3472 63.852 58.3535 63.852ZM62.8367 63.277C63.7801 63.277 64.6785 62.4504 64.6336 61.4801C64.5887 60.5098 63.8429 59.6832 62.8367 59.6832C61.8933 59.6832 60.9949 60.5098 61.0398 61.4801C61.0847 62.4594 61.8305 63.277 62.8367 63.277ZM62.9535 58.6231C63.8969 58.6231 64.7953 57.7965 64.7504 56.8262C64.7054 55.8559 63.9597 55.0293 62.9535 55.0293C62.0101 55.0293 61.1117 55.8559 61.1566 56.8262C61.2015 57.7965 61.9472 58.6231 62.9535 58.6231ZM73.9414 12.623C74.1929 12.2906 73.8066 12.7938 73.7617 12.8566C73.6359 13.0094 73.5101 13.1711 73.3754 13.3238C73.1508 13.5934 72.9172 13.8539 72.6836 14.1145C72.1715 14.6715 71.6414 15.2016 71.0933 15.7137C70.5722 16.1898 70.0422 16.648 69.4941 17.0793C69.3324 17.2051 69.3324 17.2051 69.5031 17.0793C69.4222 17.1422 69.3414 17.2051 69.2605 17.259C69.0988 17.3758 68.9371 17.5016 68.7754 17.6094C68.4879 17.816 68.2004 18.0137 67.9039 18.2023C67.275 18.6156 66.6281 19.002 65.9633 19.3523C65.6398 19.523 65.3164 19.6938 64.984 19.8465C64.8851 19.8914 64.7953 19.9363 64.6965 19.9723C64.8851 19.8914 64.8851 19.8914 64.6875 19.9723C64.5437 20.0262 64.391 20.0891 64.2472 20.143C63.8519 20.2867 63.4566 20.4035 63.0433 20.5023C62.8906 20.5383 62.7379 20.5652 62.5851 20.5922C62.3785 20.6281 62.3785 20.6281 62.6031 20.5922C62.5043 20.6012 62.3965 20.6102 62.2976 20.6191C61.9383 20.6461 61.5879 20.6281 61.2375 20.6191C61.0308 20.6012 61.0398 20.6012 61.2644 20.6281L60.9679 20.5742C60.7703 20.5293 60.5726 20.4754 60.375 20.4125C59.4765 20.125 58.3715 20.7449 58.1648 21.6703C57.9402 22.6496 58.4613 23.575 59.4226 23.8805C62.9625 25.0035 66.664 23.2695 69.5929 21.3738C72.4949 19.5051 74.9746 17.1512 77.059 14.4199C77.634 13.6742 77.2027 12.3805 76.4121 11.9582C75.4508 11.473 74.5523 11.8234 73.9414 12.623Z" fill="#92646E"/>
<path d="M77.1578 14.2043C74.9477 15.7496 72.9442 17.5645 71.2371 19.6488C69.4403 21.85 67.8051 24.2758 66.8887 26.9891C66.3227 28.6602 66.1789 30.4121 66.5024 32.1461C66.6731 33.0715 67.85 33.6824 68.7125 33.4039C69.7098 33.0805 70.15 32.191 69.9703 31.1938C69.9524 31.0949 69.9344 30.9871 69.9164 30.8883C69.9434 31.1129 69.9524 31.1129 69.9254 30.9063C69.9254 30.6996 69.9074 30.493 69.9074 30.2863C69.9074 30.0797 69.9254 29.873 69.9344 29.6664C69.9614 29.4598 69.9524 29.4598 69.9254 29.6844C69.9434 29.5855 69.9614 29.4777 69.9793 29.3789C70.1231 28.6063 70.3567 27.8605 70.6621 27.1328C70.5094 27.5102 70.7699 26.9082 70.7969 26.8453C70.8867 26.6566 70.9766 26.468 71.0754 26.2793C71.2461 25.9559 71.4168 25.6414 71.6055 25.327C72.0098 24.6441 72.441 23.9793 72.8992 23.3324C72.9981 23.1887 73.1059 23.0449 73.2137 22.9012C73.2586 22.8473 73.6449 22.3352 73.3934 22.6586C73.6449 22.3441 73.8965 22.0297 74.1571 21.7152C74.6422 21.1402 75.1543 20.5922 75.6844 20.0531C76.2145 19.523 76.7625 19.0199 77.3285 18.5348L77.7867 18.1574C77.8496 18.1125 78.3438 17.7172 78.0024 17.9777C78.3168 17.7441 78.6313 17.5105 78.9547 17.2859C79.7274 16.7469 80.1586 15.6867 79.6016 14.8242C79.1254 14.0875 77.9844 13.6293 77.1578 14.2043Z" fill="#92646E"/>
<path d="M75.0645 15.1746C75.1902 15.1926 75.316 15.2105 75.4418 15.2465C75.4957 15.2645 75.8551 15.3543 75.5945 15.2824C75.343 15.2105 75.6664 15.3273 75.7293 15.3543C75.8192 15.4082 76.1875 15.552 75.7922 15.3633C75.882 15.4082 75.9629 15.516 76.0348 15.5789C76.2953 15.8395 76.0258 15.6328 76.0527 15.5609C76.0527 15.5699 76.2504 15.8664 76.2594 15.8844C76.4481 16.1898 76.1516 15.5609 76.2863 15.9293C76.6008 16.8098 77.5262 17.5016 78.4965 17.1871C79.368 16.9086 80.0867 15.9293 79.7543 14.977C79.1793 13.3508 77.7957 11.9492 76.0258 11.7066C75.5227 11.6348 75.1004 11.6168 74.6422 11.8863C74.2738 12.102 73.9145 12.5332 73.8156 12.9645C73.618 13.8 74.0672 15.0309 75.0645 15.1746ZM29.5676 43.6102C27.4293 45.6855 25.9289 48.291 24.707 50.9773C23.7547 53.0797 23.018 55.3707 21.7332 57.3113C21.6793 57.3922 21.6254 57.473 21.5625 57.5539C21.5266 57.6078 21.4906 57.6527 21.4547 57.7066C21.293 57.9402 21.7512 57.3383 21.5715 57.5629C21.3289 57.8594 21.0863 58.1469 20.8348 58.4344C20.3316 58.9914 19.7926 59.5215 19.2356 60.0246C18.6695 60.5367 18.0676 61.0039 17.4836 61.498C17.4746 61.507 17.8609 61.2105 17.6633 61.3633C17.5914 61.4172 17.5195 61.4711 17.4387 61.534C17.2949 61.6418 17.1422 61.7496 16.9984 61.8574C16.7109 62.0641 16.4234 62.2617 16.127 62.4594C15.5969 62.8098 15.0578 63.1512 14.5008 63.4477C14.2762 63.5734 14.0516 63.6902 13.818 63.798C13.7102 63.852 13.5934 63.8969 13.4856 63.9508C14.1684 63.6184 13.5215 63.9238 13.3418 63.9867C12.0481 64.418 10.5477 64.5168 9.38868 65.2895C8.58009 65.8375 7.9422 66.6191 7.7086 67.5805C7.49298 68.4789 7.49298 69.548 8.02306 70.3477C9.0922 71.9559 10.9879 71.893 12.641 71.3898C13.8809 71.0215 15.0938 70.5273 16.3246 70.141C17.4027 69.7996 18.4449 69.3145 19.4691 68.8293C21.7332 67.7691 23.9344 66.5742 26.1445 65.4063C26.5938 65.1637 27.052 64.9301 27.5012 64.6965C27.6809 64.6066 27.8516 64.5168 28.0313 64.427C28.1121 64.391 28.193 64.3461 28.2649 64.3102C28.5793 64.1395 27.7438 64.5078 27.9234 64.4539C28.4984 64.2742 29.0734 64.1035 29.6574 63.9598C31.9574 63.3668 34.1766 62.6031 36.3418 61.6238C39.0371 60.393 41.5348 58.8027 43.9785 57.1406C48.5785 54.0051 53.0617 50.618 57.2484 46.9434C57.9852 46.2965 58.7129 45.6316 59.4137 44.9398C59.6742 44.6793 59.9348 44.4098 60.1863 44.1313C60.3481 43.9516 60.5008 43.7809 60.6715 43.6102C60.7524 43.5293 60.8422 43.4484 60.932 43.3766C60.9859 43.3316 61.0399 43.2867 61.0848 43.2418C61.3633 42.9992 60.968 43.3047 60.9141 43.3676C61.2645 42.9813 61.9024 42.6848 62.3426 42.4332C62.8547 42.1367 63.3848 41.8582 63.9059 41.5887C64.9301 41.0676 65.9723 40.5645 66.9516 39.9535C68.0477 39.2617 69.0719 38.4352 69.7637 37.3301C70.5813 36.0184 70.6262 34.5359 70.4106 33.0535C70.1949 31.607 69.593 30.2055 68.9012 28.9297C68.1645 27.573 67.2481 26.3242 66.2688 25.1383C65.4871 24.2039 64.6426 23.3234 63.6902 22.5598C62.2258 21.3648 60.6895 20.2777 58.8836 19.6488C58.1649 19.3973 57.3473 19.2625 56.5926 19.3254C55.4516 19.4242 54.5801 19.8555 53.6996 20.5832C52.7113 21.4008 51.8129 22.3352 51.1301 23.4312C50.9414 23.7367 50.7707 24.0602 50.591 24.3746C50.5012 24.5363 50.4024 24.707 50.3035 24.8598C50.2586 24.9316 50.2047 25.0125 50.1508 25.0844C50.1238 25.1293 50.0879 25.1742 50.052 25.2191C49.8543 25.5066 50.1777 25.0305 50.2227 25.0035C50.034 25.1113 49.8453 25.4527 49.6926 25.6145C49.459 25.857 49.2164 26.0996 48.9738 26.3242C48.4617 26.8004 47.9137 27.2316 47.3836 27.6809C45.0656 29.6395 42.8375 31.6879 40.6004 33.7363C39.3426 34.8773 38.0938 36.0273 36.8359 37.1773C35.9645 37.968 35.9734 39.5582 36.8359 40.3578C37.7703 41.2113 39.082 41.2023 40.0164 40.3578C42.4512 38.1477 44.868 35.9195 47.3117 33.7184C48.318 32.8199 49.3242 31.9215 50.3574 31.041C51.3277 30.2234 52.334 29.4418 53.1695 28.4805C53.8074 27.7438 54.3016 26.9621 54.7688 26.1176C54.9484 25.7941 55.1641 25.5066 55.3617 25.1922C54.9664 25.8211 55.1461 25.4617 55.2899 25.3C55.3617 25.2102 55.4426 25.1293 55.5234 25.0395C55.7301 24.8148 55.9547 24.5902 56.1793 24.3836C56.2961 24.2758 56.4129 24.168 56.5387 24.0602C56.6645 23.9523 56.925 23.8086 57.0059 23.6648C56.9789 23.7188 56.5387 23.9523 56.8262 23.8266C56.8711 23.8086 56.934 23.7816 56.9699 23.7457C57.1766 23.593 56.4758 23.8984 56.7274 23.8535C56.8082 23.8355 56.8981 23.8086 56.9879 23.7816C57.3383 23.6828 56.4129 23.7906 56.8801 23.8086C56.9699 23.8086 57.5359 23.8625 57.0957 23.8086C56.6824 23.7547 57.1676 23.8355 57.2754 23.8625C57.4641 23.9074 57.6438 23.9703 57.8324 24.0332C58.2996 24.2039 57.509 23.8625 57.8594 24.0422C58.0301 24.132 58.2008 24.2129 58.3715 24.3027C58.7219 24.4914 59.0723 24.707 59.4047 24.9227C59.7102 25.1203 60.0066 25.3359 60.2941 25.5605C60.6176 25.7941 60.2672 25.5246 60.2133 25.4977C60.2942 25.5426 60.384 25.6324 60.4649 25.6953C60.6086 25.8121 60.7524 25.9289 60.8961 26.0547C61.7766 26.8094 62.5672 27.6719 63.2949 28.5703C63.3488 28.6422 63.6813 29.0555 63.4387 28.75C63.1961 28.4445 63.5195 28.8668 63.5734 28.9387C63.7801 29.2172 63.9867 29.5137 64.1754 29.8012C64.5527 30.3672 64.9031 30.9602 65.2086 31.5621C65.2805 31.6969 65.3434 31.8316 65.4063 31.9664C65.4422 32.0473 65.4781 32.1191 65.5141 32.2C65.6758 32.5324 65.4512 32.0473 65.4422 32.0113C65.541 32.3258 65.6848 32.6313 65.7836 32.9457C65.8734 33.2332 65.9453 33.5207 66.0082 33.8082C66.0352 33.934 66.0801 34.0777 66.0801 34.2035C66.0801 34.2035 66.0262 33.5836 66.0441 33.943C66.0531 34.0328 66.0621 34.1227 66.0621 34.2215C66.0711 34.3473 66.0711 34.473 66.0621 34.5988C66.0621 34.6707 66.0531 34.7426 66.0531 34.8145C66.0531 35.0121 65.9184 35.0391 66.107 34.473C66.0621 34.6168 66.0621 35.0031 65.9363 35.102C66.0172 35.048 66.2238 34.509 66.0082 34.8953C65.9633 34.9762 65.9094 35.057 65.8555 35.1379C65.8645 35.1289 65.7656 35.2727 65.7567 35.2727C65.7297 35.2637 66.1609 34.7965 65.9543 35.0211C65.8734 35.102 65.8016 35.1918 65.7207 35.2816C65.568 35.4434 65.3973 35.5961 65.2266 35.7398C64.9031 36.0184 65.6399 35.4434 65.3434 35.65C65.2266 35.7309 65.1098 35.8207 64.984 35.9016C64.5438 36.198 64.0766 36.4676 63.6094 36.7191C62.6211 37.2582 61.5969 37.7344 60.6086 38.2734C59.5125 38.8754 58.4434 39.5582 57.527 40.4207C56.952 40.9598 56.4488 41.5707 55.8828 42.1187C54.3016 43.6371 52.6125 45.0477 50.9055 46.4312C50.3934 46.8445 49.8723 47.2578 49.3512 47.6711C49.0906 47.8777 48.8301 48.0754 48.5695 48.282C48.1742 48.5875 48.857 48.0574 48.5516 48.3C48.4078 48.4078 48.2731 48.5156 48.1293 48.6234C47.0242 49.468 45.9012 50.3035 44.7691 51.1211C42.6758 52.6305 40.5555 54.1039 38.3543 55.4605C36.9887 56.3051 35.5781 57.0688 34.1227 57.7426C33.9609 57.8145 33.7902 57.8953 33.6195 57.9672C33.5207 58.0121 33.0535 58.2098 33.4039 58.066C33.7813 57.9043 33.2152 58.1379 33.1434 58.1738C32.9906 58.2367 32.8379 58.2906 32.6852 58.3535C32.1461 58.5602 31.5981 58.7488 31.05 58.9285C29.6395 59.3777 28.157 59.6203 26.7734 60.1414C25.9199 60.4648 25.1113 60.923 24.3117 61.3453C23.2785 61.8934 22.2543 62.4414 21.2211 62.9805C20.116 63.5555 19.0109 64.1215 17.8969 64.6695C17.4117 64.9031 16.9176 65.1367 16.4234 65.3613C16.3066 65.4152 16.1809 65.4691 16.0641 65.523L15.9293 65.577C15.6867 65.6848 16.4504 65.3613 16.2078 65.4602C15.9922 65.541 15.7856 65.6309 15.5699 65.7117C14.5098 66.107 13.4227 66.4395 12.3535 66.8168C11.7965 67.0145 11.2305 67.1852 10.6555 67.3199C10.1973 67.4277 11.2305 67.302 10.8082 67.302C10.7543 67.302 10.5746 67.275 10.5297 67.302C10.5207 67.3109 11.1676 67.4098 10.925 67.3469C10.7363 67.302 10.7184 67.1582 11.2844 67.5086C11.2035 67.4547 11.1047 67.3828 11.4191 67.6164C11.509 67.6793 11.9582 68.2992 11.8414 68.0656C11.8234 68.0297 12.057 68.6945 11.9941 68.416C11.9852 68.3801 12.066 69.1078 12.0481 68.7844C12.0481 68.7395 12.057 68.6945 12.0481 68.6496C12.0121 68.416 11.9223 69.1707 12.0031 68.9281C12.0211 68.8832 12.0301 68.8203 12.0391 68.7754C12.075 68.4699 11.9672 69.027 11.9133 69.0359C11.9133 69.0359 11.9852 68.9012 12.0031 68.8742C12.1469 68.5777 11.6707 69.2605 11.8414 69.0898C12.1199 68.7934 11.4012 69.3594 11.6887 69.1887C11.7156 69.1797 12.0121 69.009 12.0121 69.009C12.0211 69.0539 11.3742 69.2426 11.8953 69.0719C12.0481 69.018 12.2098 68.973 12.3625 68.9371C13.7192 68.5777 15.0309 68.2543 16.2977 67.6254C17.3938 67.0773 18.4359 66.3945 19.4242 65.6668C20.727 64.7145 21.9848 63.6992 23.1348 62.5672C24.1231 61.5969 25.0754 60.5277 25.8031 59.3418C26.3422 58.4613 26.7645 57.509 27.1688 56.5656C28.193 54.2117 29.1453 51.8129 30.5109 49.6297C30.6906 49.3512 30.8703 49.0727 31.059 48.8031L31.3285 48.4258L31.4902 48.2102C31.4723 48.2461 31.1488 48.6414 31.3824 48.3449C31.8047 47.8238 32.2539 47.3207 32.7391 46.8535C33.5836 46.0359 33.6195 44.4906 32.7391 43.673C31.8316 42.7836 30.466 42.7387 29.5676 43.6102Z" fill="#92646E"/>
<path d="M54.2476 45.2363C53.0527 47.168 51.8668 49.1086 50.6719 51.0402C50.5641 51.2109 50.4652 51.3816 50.3574 51.5523C50.2855 51.6781 50.0699 51.9566 50.4203 51.5164C50.7707 51.0672 50.5371 51.3457 50.4383 51.4535L50.0609 51.8578C49.1266 52.8641 48.1832 53.8703 47.2488 54.8766C46.5391 55.6402 45.8203 56.4039 45.1105 57.1676C44.7242 57.5809 44.4277 58.1738 44.4547 58.7578C44.4816 59.3957 44.7242 59.8449 45.1105 60.3481C46.557 62.2078 48.0035 64.0676 49.45 65.9184C49.6477 66.1699 49.8453 66.4305 50.043 66.682C49.3332 65.7746 49.8543 66.5293 50.025 66.8258C50.6809 68.0387 51.3457 69.2516 52.0016 70.4645C52.5226 71.4348 53.0527 72.3961 53.5738 73.3664C54.0051 74.166 55.218 74.741 56.1074 74.3996C58.3445 73.5281 60.5726 72.6656 62.8098 71.7941C63.3488 71.5875 63.816 71.4527 64.373 71.3359C65.7926 71.0395 67.2121 70.743 68.6316 70.4375C69.7187 70.2129 70.8059 69.9793 71.893 69.7547C72.7734 69.566 73.6269 68.5148 73.5461 67.5895C73.3215 65.2266 73.0969 62.8547 72.8812 60.4918C72.8453 60.1324 72.8633 59.7191 72.7734 59.3688C72.7016 59.0902 72.6477 60.1953 72.7016 59.8359C72.7195 59.6922 72.7465 59.5395 72.7644 59.3957L73.3305 55.3527C73.4832 54.2387 73.6449 53.1336 73.7977 52.0195C73.8785 51.4266 73.9144 50.8246 73.573 50.2856C73.2676 49.8094 72.8004 49.3781 72.2344 49.2523C69.9164 48.7492 67.5894 48.2461 65.2715 47.734C64.9301 47.6621 64.5437 47.5184 64.1934 47.5004C63.9418 47.4824 64.948 47.8418 64.5976 47.6801C64.4629 47.6172 64.3191 47.5543 64.1844 47.4914C62.9266 46.9254 61.6598 46.3684 60.4019 45.8023C59.3777 45.3441 58.3625 44.8949 57.3383 44.4367C56.7723 44.1852 56.2332 44.0414 55.6043 44.2121C55.0652 44.3469 54.4992 44.7512 54.2476 45.2363C53.7266 46.2156 53.9062 47.7969 55.0562 48.309C57.2305 49.2793 59.4137 50.2496 61.5879 51.2199C62.2617 51.5254 62.9086 51.8039 63.6363 51.9566C65.0109 52.2531 66.3945 52.5586 67.7691 52.8551C68.8562 53.0887 69.9434 53.3313 71.0305 53.5648C70.5094 52.6395 69.9883 51.7231 69.4582 50.7977C69.1258 53.1516 68.8023 55.5055 68.4699 57.8594C68.434 58.1379 68.3891 58.4164 68.3531 58.6949C68.2812 59.1981 68.2992 59.5305 68.3441 60.0246C68.4789 61.4262 68.6047 62.8277 68.7394 64.2293C68.8473 65.3434 68.9461 66.4574 69.0539 67.5715C69.6019 66.8527 70.15 66.125 70.707 65.4063C68.3441 65.9004 65.9723 66.4035 63.6094 66.8977C63.0434 67.0145 62.4863 67.1133 61.9473 67.3199C60.6805 67.8141 59.4137 68.3082 58.1379 68.8023C57.0687 69.2156 55.9906 69.6379 54.9215 70.0512C55.766 70.3926 56.6105 70.743 57.4551 71.0844C56.323 69 55.191 66.9246 54.068 64.8402C53.9152 64.5527 53.7715 64.2473 53.5918 63.9688C53.3941 63.6543 53.1156 63.3488 52.882 63.0523C52.0375 61.9652 51.193 60.8871 50.3484 59.8C49.6656 58.9195 48.9738 58.0301 48.291 57.1496V60.3301C49.8633 58.65 51.4266 56.9699 52.9988 55.2899C53.493 54.7598 53.9691 54.2566 54.3555 53.6367C55.0383 52.5227 55.7211 51.4086 56.4129 50.3035C56.9879 49.3691 57.5629 48.4438 58.1289 47.5094C58.7488 46.5031 58.3805 44.9938 57.3203 44.4367C56.2242 43.8527 54.9035 44.1672 54.2476 45.2363ZM61.9473 25.3719C61.507 26.0727 61.0398 26.7555 60.5547 27.4293C60.4109 27.627 60.7344 27.1957 60.7164 27.2137C60.6625 27.2676 60.6176 27.3395 60.5726 27.3934C60.4828 27.5102 60.384 27.618 60.2941 27.7348C60.1144 27.9414 59.9258 28.1481 59.7371 28.3457C59.4227 28.6691 59.0812 28.9566 58.7309 29.2441C58.7039 29.2711 58.65 29.325 58.6141 29.334C58.5512 29.3609 59.0902 28.9746 58.9195 29.1004C58.8387 29.1633 58.7578 29.2262 58.6769 29.2801C58.5062 29.4148 58.3266 29.5406 58.1559 29.6754C57.3742 30.2684 56.6465 30.9242 55.8828 31.5441C55.5953 31.7777 56.0355 31.4004 56.1344 31.3555C56.0805 31.3824 56.0266 31.4363 55.9726 31.4813L55.6223 31.7238C55.3976 31.8766 55.1641 32.0293 54.9215 32.1731C53.475 33.0895 52.0914 34.0867 50.7797 35.2008C48.5516 37.1055 46.6019 39.2797 44.5086 41.3191C40.6633 45.1016 36.5934 48.6504 32.4336 52.0734C31.8676 52.5406 31.2926 53.0078 30.7176 53.466C30.6277 53.5379 30.5289 53.6098 30.4391 53.6816C30.0707 53.9691 30.9422 53.3133 30.6547 53.5199C30.6008 53.5559 30.5469 53.6008 30.493 53.6367C29.6664 54.2477 28.8578 54.8766 28.0402 55.4965C25.5156 57.4102 23 59.3148 20.4754 61.2285C20.4215 61.2734 20.3676 61.3094 20.3137 61.3543C19.8285 61.7227 19.4512 62.082 19.2805 62.693C19.1367 63.232 19.1996 63.9508 19.5051 64.427C20.098 65.3523 21.5805 65.9902 22.5777 65.2355C24.8238 63.5285 27.0789 61.8305 29.325 60.1234C31.1039 58.7758 32.9098 57.4551 34.6437 56.0445C38.5879 52.8461 42.4332 49.5039 46.1258 46.018C48.3629 43.9066 50.4293 41.6336 52.6754 39.5402C53.1246 39.127 53.5828 38.7137 54.041 38.3184C54.2387 38.1477 54.4363 37.9859 54.643 37.8242C54.7328 37.7523 54.8316 37.6715 54.9215 37.5996C54.9574 37.5727 54.9934 37.5457 55.0203 37.5188C55.3078 37.2852 54.5351 37.8781 54.8316 37.6625C55.4156 37.2313 56.0086 36.809 56.6285 36.4137C57.8324 35.641 58.9285 34.8145 60.0156 33.8891C60.1863 33.7453 60.357 33.6106 60.5277 33.4668C60.8691 33.1883 60.0516 33.8262 60.393 33.5656C60.4828 33.4938 60.5816 33.4219 60.6715 33.35C61.1297 33.0086 61.5879 32.6672 62.0281 32.3078C62.9805 31.5352 63.7441 30.6008 64.4719 29.6305C64.957 28.9836 65.3973 28.3098 65.8285 27.627C66.4484 26.6297 66.0711 25.1113 65.0199 24.5543C63.9238 23.9883 62.6121 24.3117 61.9473 25.3719Z" fill="#92646E"/>
</svg>
