<svg width="85" height="64" viewBox="0 0 85 64" fill="none" xmlns="http://www.w3.org/2000/svg">
<path d="M16.697 6.12856C17.6227 6.65427 18.1255 7.61997 18.3941 8.41425C17.297 9.20567 16.2855 9.51424 15.3741 9.33138C13.9056 9.03996 12.5484 7.61426 11.5599 6.21713C13.7799 5.51714 15.5541 5.47714 16.697 6.12856Z" fill="white" fill-opacity="0.8"/>
<path d="M79.1964 37.3597C79.2535 44.7282 75.265 54.191 68.7193 56.6309C64.0622 58.3681 59.5137 56.6881 59.4023 56.6452C58.7337 56.3852 57.9937 56.3881 57.3309 56.6509C57.2852 56.6681 52.7109 58.3766 48.0224 56.6309C41.4767 54.191 37.4882 44.7282 37.5482 37.3597C37.5654 35.0283 38.0654 29.4426 42.311 27.9369C43.9053 27.3712 45.4224 27.0912 46.8624 27.0912C48.891 27.0912 50.7624 27.6512 52.4538 28.7741C54.7309 30.2855 55.888 32.2997 55.8909 32.3026C56.388 33.2054 57.3337 33.7769 58.3651 33.7769C59.3994 33.7769 60.3451 33.2226 60.8423 32.3197C60.8537 32.2997 62.0108 30.2855 64.2908 28.7741C67.1793 26.8569 70.5907 26.5741 74.4307 27.9369C78.6764 29.4426 79.1764 35.0283 79.1964 37.3597Z" fill="white" fill-opacity="0.8"/>
<path d="M12.1684 44.9967C15.7598 44.9967 18.6798 47.9167 18.6798 51.5081C18.6798 55.0966 15.7598 58.0166 12.1684 58.0166C8.57988 58.0166 5.65991 55.0966 5.65991 51.5081C5.65991 47.9167 8.57988 44.9967 12.1684 44.9967Z" fill="white" fill-opacity="0.8"/>
<path d="M39.0396 56.9738C38.0225 57.6309 36.8168 58.0166 35.5168 58.0166C31.9283 58.0166 29.0083 55.0966 29.0083 51.5081C29.0083 48.8081 30.6626 46.4939 33.0083 45.511C33.6111 47.7053 34.4425 49.8453 35.4797 51.811C36.5025 53.7566 37.7054 55.4881 39.0396 56.9738Z" fill="white" fill-opacity="0.8"/>
<path d="M84.8563 37.3168C84.8934 42.1225 83.5849 47.4081 81.262 51.811C78.6478 56.7738 74.8964 60.3709 70.6964 61.9337C68.4022 62.788 66.1593 63.0737 64.1851 63.0737C61.6451 63.0766 59.5537 62.6023 58.3708 62.2594C56.268 62.868 51.2966 63.8908 46.0453 61.9337C45.1681 61.608 44.3138 61.188 43.4824 60.6909C41.3482 62.548 38.5625 63.6766 35.5168 63.6766C29.9997 63.6766 25.3283 59.9823 23.8426 54.9366C22.3598 59.9823 17.6884 63.6766 12.1684 63.6766C5.45995 63.6766 0 58.2166 0 51.5081C0 45.2367 4.76852 40.0597 10.8685 39.4082C15.8656 33.5997 17.8255 22.1941 18.4398 14.6571C17.5198 14.9342 16.6627 15.0428 15.8884 15.0428C15.2884 15.0428 14.737 14.977 14.2484 14.8799C8.38563 13.6971 5.23709 6.71713 4.89709 5.92571C4.29996 4.53144 4.90852 2.91431 6.27422 2.26003C11.737 -0.365654 16.2113 -0.705652 19.5684 1.25147C22.7541 3.10574 23.8169 6.35713 24.1655 8.11997C30.1997 14.1056 33.7168 20.2684 35.7539 25.6998C37.0253 24.3027 38.591 23.2513 40.4196 22.6027C47.2424 20.1827 52.2852 21.9255 55.4223 23.9541C55.7966 18.2342 57.4394 10.4228 63.0965 5.17715C64.2422 4.1143 66.0308 4.18001 67.0936 5.32572C68.1565 6.47142 68.0907 8.26283 66.945 9.32568C62.7251 13.2399 61.4222 19.417 61.0937 24.1055C64.2108 22.0141 69.3336 20.1227 76.3221 22.6027C81.6878 24.5055 84.7963 29.8683 84.8563 37.3168ZM68.7193 56.6309C75.265 54.1909 79.2535 44.7282 79.1963 37.3597C79.1763 35.0283 78.6764 29.4426 74.4307 27.9369C70.5907 26.5741 67.1793 26.8569 64.2908 28.7741C62.0108 30.2855 60.8537 32.2997 60.8422 32.3197C60.3451 33.2226 59.3994 33.7769 58.3651 33.7769C57.3337 33.7769 56.388 33.2054 55.8909 32.3026C55.888 32.2997 54.7309 30.2855 52.4538 28.7741C50.7623 27.6512 48.8909 27.0912 46.8624 27.0912C45.4224 27.0912 43.9053 27.3712 42.311 27.9369C38.0653 29.4426 37.5653 35.0283 37.5482 37.3597C37.4882 44.7282 41.4767 54.1909 48.0224 56.6309C52.7109 58.3766 57.2851 56.6681 57.3309 56.6509C57.9937 56.3881 58.7337 56.3852 59.4023 56.6452C59.5137 56.6881 64.0622 58.368 68.7193 56.6309ZM35.5168 58.0166C36.8168 58.0166 38.0225 57.6309 39.0396 56.9738C37.7053 55.4881 36.5025 53.7567 35.4796 51.811C34.4425 49.8453 33.6111 47.7053 33.0082 45.511C30.6625 46.4939 29.0083 48.8081 29.0083 51.5081C29.0083 55.0966 31.9282 58.0166 35.5168 58.0166ZM31.8883 37.3168C31.8968 36.0854 31.9911 34.914 32.1625 33.8054C32.054 33.2426 31.9282 32.6597 31.7825 32.0569C30.4026 26.4026 27.7797 21.1398 23.9683 16.3513C23.3426 23.0684 21.6569 33.2711 17.1398 40.4025C20.3569 41.8482 22.8341 44.651 23.8426 48.0767C24.9997 44.1539 28.0797 41.0482 31.9911 39.8625C31.9168 39.0025 31.8797 38.1511 31.8883 37.3168ZM18.3941 8.41426C18.1255 7.61998 17.6227 6.65427 16.697 6.12857C15.5541 5.47714 13.7799 5.51714 11.5599 6.21714C12.5484 7.61427 13.9056 9.03996 15.3741 9.33139C16.2856 9.51425 17.297 9.20568 18.3941 8.41426ZM18.6798 51.5081C18.6798 47.9167 15.7598 44.9967 12.1684 44.9967C8.57991 44.9967 5.65994 47.9167 5.65994 51.5081C5.65994 55.0966 8.57991 58.0166 12.1684 58.0166C15.7598 58.0166 18.6798 55.0966 18.6798 51.5081Z" fill="white"/>
</svg>
