<svg width="87" height="87" viewBox="0 0 87 87" fill="none" xmlns="http://www.w3.org/2000/svg">
<g clip-path="url(#clip0_296_123)">
<path d="M42.8273 18.2583C40.1615 14.8944 36.1709 12.9651 31.8787 12.9651H30.3519L36.9768 6.34026C37.9928 5.3243 37.9928 3.67692 36.9768 2.66062C35.9608 1.64466 34.3135 1.64466 33.2972 2.66062L28.9448 7.01297V2.60166C28.945 1.16481 27.7802 0 26.3433 0C24.9065 0 23.7417 1.16481 23.7417 2.60166V7.0128L19.3897 2.66079C18.3737 1.64483 16.7263 1.64483 15.71 2.66079C14.6941 3.67675 14.6941 5.32413 15.71 6.34043L22.3349 12.9653H20.8082C16.516 12.9653 12.5252 14.8948 9.85947 18.2587C7.19358 21.6226 6.22724 25.9484 7.20547 30.1171L19.5983 83.8818C19.8756 85.0853 20.9468 85.8996 22.1313 85.8996C22.3249 85.8996 22.5216 85.8777 22.7181 85.8325C24.1182 85.5096 24.9916 84.113 24.6691 82.7127L19.122 58.6465H24.2778C25.7146 58.6465 26.8794 57.4817 26.8794 56.0448C26.8794 54.608 25.7146 53.4432 24.2778 53.4432H17.9224L15.0828 41.1236H24.2774C25.7143 41.1236 26.8791 39.9588 26.8791 38.5219C26.8791 37.0851 25.7143 35.9203 24.2774 35.9203H13.8835L12.274 28.9375C11.6588 26.3153 12.2649 23.6007 13.9381 21.4899C15.611 19.3788 18.1154 18.1681 20.8088 18.1681H31.8788C34.5724 18.1681 37.0765 19.3786 38.7494 21.4897C40.4223 23.6007 41.0287 26.3153 40.4135 28.9375C40.0852 30.3361 40.9531 31.7365 42.3519 32.0647C43.7504 32.3934 45.1508 31.5251 45.4791 30.1263C46.4597 25.9483 45.4932 21.6224 42.8273 18.2583Z" fill="#5FA533"/>
<path d="M67.3974 40.1066L56.6506 43.2073C55.4093 43.7398 54.0039 43.7398 52.7627 43.2073L42.0158 40.1066C36.4047 38.4876 31.0187 43.2612 31.9514 49.0259L35.786 77.7043C36.613 82.8155 42.0231 85.7893 46.7816 83.7481L54.7064 80.3486L62.6311 83.7481C67.3896 85.7893 72.7996 82.8155 73.6267 77.7043L77.4613 49.0259C78.3947 43.2612 73.0086 38.4876 67.3974 40.1066Z" fill="#CFF09E"/>
<path d="M77.6593 40.9217C75.6382 38.5474 72.7117 37.1855 69.6305 37.1855C68.6395 37.1855 67.6457 37.3272 66.6763 37.6069L57.3087 40.3098V31.0903C57.3087 29.6534 56.1439 28.4886 54.7071 28.4886C53.2702 28.4886 52.1054 29.6534 52.1054 31.0903V40.3102L42.7378 37.6072C41.7684 37.3275 40.7746 37.1858 39.7839 37.1858C36.7022 37.1858 33.7755 38.5476 31.7548 40.9219C29.761 43.2642 28.8959 46.3537 29.378 49.404L33.2085 78.0496C33.2116 78.0732 33.215 78.097 33.2189 78.1203C34.0515 83.2653 38.4368 86.9998 43.6462 86.9998C45.0771 86.9998 46.4774 86.7103 47.8086 86.1395L54.7077 83.18L61.6069 86.1395C62.9377 86.7103 64.3382 86.9998 65.7691 87.0002C65.7694 87.0002 65.7696 87.0002 65.7699 87.0002C70.979 87.0002 75.364 83.2657 76.1964 78.1203C76.2003 78.0968 76.2037 78.0732 76.2068 78.0496L80.0373 49.404C80.5185 46.3536 79.6531 43.2641 77.6593 40.9217ZM74.8937 48.6105C74.8897 48.6339 74.8863 48.6575 74.8833 48.6812L71.0538 77.3206C70.6183 79.916 68.4008 81.7964 65.7689 81.7964H65.7686C65.0466 81.7964 64.3363 81.6485 63.6573 81.3571L55.7325 77.9577C55.4049 77.8171 55.0559 77.747 54.7069 77.747C54.358 77.747 54.0085 77.8171 53.6812 77.9577L45.7568 81.3571C45.0775 81.6485 44.3672 81.7964 43.6455 81.7964C41.0135 81.7964 38.7957 79.9158 38.3602 77.3206L34.5307 48.6812C34.5276 48.6575 34.5242 48.6337 34.5203 48.6105C34.2651 47.0333 34.6899 45.5004 35.7169 44.2943C36.7476 43.0834 38.2298 42.3888 39.7838 42.3888C40.2867 42.3888 40.795 42.4619 41.2954 42.6063L51.9027 45.6669C52.7703 46.0153 53.6945 46.1935 54.6204 46.2039C54.6495 46.2049 54.6778 46.2083 54.7072 46.2083C54.7366 46.2083 54.7652 46.2049 54.7944 46.2039C55.7201 46.1932 56.6442 46.0153 57.5119 45.6669L68.1192 42.6063C68.6195 42.4619 69.1279 42.3888 69.631 42.3888C71.1848 42.3888 72.667 43.0833 73.6977 44.2943C74.7237 45.5007 75.1489 47.0334 74.8937 48.6105Z" fill="#5FA533"/>
</g>
<defs>
<clipPath id="clip0_296_123">
<rect width="87" height="87" fill="white"/>
</clipPath>
</defs>
</svg>
