<svg width="108" height="90" viewBox="0 0 108 90" fill="none" xmlns="http://www.w3.org/2000/svg">
<path d="M64.8348 11.1675C68.0331 14.4327 70.7341 18.0146 72.8686 21.7684C77.827 18.8805 83.6714 16.9352 90.1839 16.4783C81.4002 23.1789 88.1452 51.3916 75.2148 59.8621L74.98 60.2371C103.032 60.7309 96.3561 15.4895 108.001 5.39282C90.4055 -2.47884 74.8531 1.85187 64.8348 11.1675Z" fill="white"/>
<path d="M44.0126 33.7204C53.8941 43.9619 58.0241 89.9469 58.0241 89.9469L66.0595 81.6818C66.059 81.6777 60.177 41.6226 44.0126 33.7204Z" fill="white"/>
<path d="M80.5614 23.7921C77.3903 25.3405 74.8871 28.8491 72.9332 32.8147C65.8784 9.70449 37.5988 -10.8893 0 6.59332C24.2732 10.5006 7.77589 69.0756 47.8143 69.9658C34.0947 63.3269 41.7945 40.2981 31.9724 25.2741C59.055 20.9832 70.5016 49.4723 66.7034 64.3393C73.0047 57.8332 75.3608 49.1793 74.4712 40.3338C75.8523 33.6229 77.857 26.59 80.5614 23.7921Z" fill="white"/>
</svg>
